<svg viewBox="0 0 100 100" xmlns="http://www.w3.org/2000/svg" role="img" aria-label="Lumenia">
  <defs>
    <filter id="lm-soft" x="-40%" y="-40%" width="180%" height="180%"><feGaussianBlur stdDeviation="1"/></filter>
    <radialGradient id="lm-abdo" cx="50%" cy="36%" r="62%">
      <stop offset="0%" stop-color="#fffdf3"/><stop offset="36%" stop-color="#fde68a"/>
      <stop offset="72%" stop-color="#fbbf24"/><stop offset="100%" stop-color="#f59e0b"/>
    </radialGradient>
    <radialGradient id="lm-glow" cx="50%" cy="50%" r="50%">
      <stop offset="0%" stop-color="#ffeab4" stop-opacity="1"/>
      <stop offset="22%" stop-color="#ffd87a" stop-opacity=".8"/>
      <stop offset="44%" stop-color="#fbbf24" stop-opacity=".42"/>
      <stop offset="68%" stop-color="#fbbf24" stop-opacity=".16"/>
      <stop offset="100%" stop-color="#fbbf24" stop-opacity="0"/>
    </radialGradient>
    <linearGradient id="lm-wing" x1="0" y1="0" x2="0" y2="1">
      <stop offset="0%" stop-color="#ede9fe"/><stop offset="55%" stop-color="#c4b5fd"/><stop offset="100%" stop-color="#fcd34d"/>
    </linearGradient>
    <linearGradient id="lm-ring" x1="0" y1="0" x2="0" y2="1">
      <stop offset="0%" stop-color="#fde68a"/><stop offset="50%" stop-color="#f59e0b" stop-opacity=".5"/><stop offset="100%" stop-color="#f59e0b" stop-opacity=".12"/>
    </linearGradient>
  </defs>

  <circle cx="50" cy="45" r="33" fill="none" stroke="url(#lm-ring)" stroke-width="1.5"/>
  <ellipse cx="50" cy="63" rx="19" ry="21" fill="url(#lm-glow)"/>

  <g><path d="M49 55 C 38 56, 29 64, 35 71 C 40 74, 47 64, 49 58 Z" fill="url(#lm-wing)" fill-opacity=".3" stroke="#a78bfa" stroke-opacity=".5" stroke-width=".7"/><path d="M48 58 C 43 61, 38 66, 36 70" fill="none" stroke="#c4b5fd" stroke-width=".4" stroke-opacity=".5"/></g>
  <g><path d="M51 55 C 62 56, 71 64, 65 71 C 60 74, 53 64, 51 58 Z" fill="url(#lm-wing)" fill-opacity=".3" stroke="#a78bfa" stroke-opacity=".5" stroke-width=".7"/><path d="M52 58 C 57 61, 62 66, 64 70" fill="none" stroke="#c4b5fd" stroke-width=".4" stroke-opacity=".5"/></g>
  <g><path d="M49 52 C 33 35, 17 39, 22 51 C 26 60, 41 56, 48 51 Z" fill="url(#lm-wing)" fill-opacity=".3" stroke="#a78bfa" stroke-opacity=".5" stroke-width=".7"/><path d="M47 52 C 38 47, 29 46, 22 49" fill="none" stroke="#c4b5fd" stroke-width=".4" stroke-opacity=".5"/></g>
  <g><path d="M51 52 C 67 35, 83 39, 78 51 C 74 60, 59 56, 52 51 Z" fill="url(#lm-wing)" fill-opacity=".3" stroke="#a78bfa" stroke-opacity=".5" stroke-width=".7"/><path d="M53 52 C 62 47, 71 46, 78 49" fill="none" stroke="#c4b5fd" stroke-width=".4" stroke-opacity=".5"/></g>

  <path d="M47.5 41 C 44 31, 43 25, 44.5 20" fill="none" stroke="#fcd34d" stroke-width="1.1" stroke-linecap="round" opacity=".85"/>
  <path d="M52.5 41 C 56 31, 57 25, 55.5 20" fill="none" stroke="#fcd34d" stroke-width="1.1" stroke-linecap="round" opacity=".85"/>
  <circle cx="50" cy="42.5" r="3.2" fill="#e9d5ff"/>
  <ellipse cx="50" cy="49.5" rx="3" ry="4.4" fill="#c4b5fd"/>
  <path d="M50 53.5 C 56.5 56, 56 65, 53 72 C 51.3 76, 50 79, 50 79 C 50 79, 48.7 76, 47 72 C 44 65, 43.5 56, 50 53.5 Z" fill="url(#lm-abdo)" filter="url(#lm-soft)"/>
  <ellipse cx="49" cy="61" rx="1.4" ry="3.1" fill="#fffef7" fill-opacity=".85"/>
</svg>
